<svg width="27" height="27" viewBox="0 0 27 27" fill="none" xmlns="http://www.w3.org/2000/svg">
<mask id="path-1-inside-1_157_161" fill="white">
<path d="M19.7821 25.751C19.6824 26.1231 19.2172 26.2474 18.9452 25.9746L14.747 21.7627C13.9965 21.0097 12.9771 20.586 11.914 20.5859H6.98818L26.1581 1.95312L19.7821 25.751ZM4.91884 18.5723V13.5918C4.91884 12.5284 4.49535 11.5084 3.74208 10.7578L0.147355 7.17676C-0.125588 6.90481 -0.00118914 6.43957 0.370988 6.33984L24.0263 0L4.91884 18.5723Z"/>
</mask>
<path d="M19.7821 25.751C19.6824 26.1231 19.2172 26.2474 18.9452 25.9746L14.747 21.7627C13.9965 21.0097 12.9771 20.586 11.914 20.5859H6.98818L26.1581 1.95312L19.7821 25.751ZM4.91884 18.5723V13.5918C4.91884 12.5284 4.49535 11.5084 3.74208 10.7578L0.147355 7.17676C-0.125588 6.90481 -0.00118914 6.43957 0.370988 6.33984L24.0263 0L4.91884 18.5723Z" fill="#4E4739"/>
<path d="M19.7821 25.751L21.714 26.2686L21.714 26.2686L19.7821 25.751ZM18.9452 25.9746L17.5287 27.3865L17.5288 27.3867L18.9452 25.9746ZM14.747 21.7627L13.3304 23.1746L13.3305 23.1746L14.747 21.7627ZM11.914 20.5859L11.914 18.5859H11.914V20.5859ZM6.98818 20.5859L5.5942 19.1518L2.06104 22.5859H6.98818V20.5859ZM26.1581 1.95312L28.09 2.47071L29.9681 -4.53918L24.7641 0.518963L26.1581 1.95312ZM4.91884 18.5723H2.91884V23.3053L6.31283 20.0064L4.91884 18.5723ZM4.91884 13.5918H6.91884V13.5918H4.91884ZM3.74208 10.7578L5.15374 9.34105L5.1536 9.34091L3.74208 10.7578ZM0.147355 7.17676L-1.26428 8.59354L-1.26416 8.59366L0.147355 7.17676ZM0.370988 6.33984L0.888626 8.2717L0.888735 8.27167L0.370988 6.33984ZM24.0263 0L25.4202 1.43415L30.9294 -3.92069L23.5085 -1.93182L24.0263 0ZM19.7821 25.751L17.8503 25.2333C18.1493 24.1174 19.5453 23.7438 20.3616 24.5626L18.9452 25.9746L17.5288 27.3867C18.8891 28.7511 21.2155 28.1288 21.714 26.2686L19.7821 25.751ZM18.9452 25.9746L20.3617 24.5627L16.1635 20.3508L14.747 21.7627L13.3305 23.1746L17.5287 27.3865L18.9452 25.9746ZM14.747 21.7627L16.1635 20.3508C15.0382 19.2218 13.5093 18.586 11.914 18.5859L11.914 20.5859L11.9139 22.5859C12.4449 22.586 12.9547 22.7976 13.3304 23.1746L14.747 21.7627ZM11.914 20.5859V18.5859H6.98818V20.5859V22.5859H11.914V20.5859ZM6.98818 20.5859L8.38216 22.0201L27.5521 3.38729L26.1581 1.95312L24.7641 0.518963L5.5942 19.1518L6.98818 20.5859ZM26.1581 1.95312L24.2262 1.43554L17.8503 25.2334L19.7821 25.751L21.714 26.2686L28.09 2.47071L26.1581 1.95312ZM4.91884 18.5723H6.91884V13.5918H4.91884H2.91884V18.5723H4.91884ZM4.91884 13.5918H6.91884C6.91884 11.9969 6.28374 10.467 5.15374 9.34105L3.74208 10.7578L2.33042 12.1746C2.70695 12.5497 2.91884 13.06 2.91884 13.5918H4.91884ZM3.74208 10.7578L5.1536 9.34091L1.55887 5.75985L0.147355 7.17676L-1.26416 8.59366L2.33057 12.1747L3.74208 10.7578ZM0.147355 7.17676L1.559 5.75998C2.37889 6.5769 2.00371 7.97291 0.888626 8.2717L0.370988 6.33984L-0.14665 4.40799C-2.00609 4.90623 -2.63007 7.23271 -1.26428 8.59354L0.147355 7.17676ZM0.370988 6.33984L0.888735 8.27167L24.544 1.93182L24.0263 0L23.5085 -1.93182L-0.146759 4.40802L0.370988 6.33984ZM24.0263 0L22.6323 -1.43415L3.52485 17.1381L4.91884 18.5723L6.31283 20.0064L25.4202 1.43415L24.0263 0Z" fill="#4E4739" mask="url(#path-1-inside-1_157_161)"/>
</svg>
